<svg class="jsvn-tree" viewBox="0 0 680 460" xmlns="http://www.w3.org/2000/svg" aria-hidden="true" preserveAspectRatio="xMidYMax meet">
<defs>
  <radialGradient id="halo" cx="50%" cy="45%" r="55%">
    <stop offset="0%" stop-color="#e9d3a0" stop-opacity="0.55"/>
    <stop offset="45%" stop-color="#cbb075" stop-opacity="0.18"/>
    <stop offset="100%" stop-color="#cbb075" stop-opacity="0"/>
  </radialGradient>
  <linearGradient id="leafDark" x1="0" y1="0" x2="0" y2="1">
    <stop offset="0%" stop-color="#2f7d5a"/><stop offset="100%" stop-color="#153c28"/>
  </linearGradient>
  <linearGradient id="leafMid" x1="0" y1="0" x2="0" y2="1">
    <stop offset="0%" stop-color="#4f9d76"/><stop offset="100%" stop-color="#1f5a3c"/>
  </linearGradient>
  <linearGradient id="leafLight" x1="0" y1="0" x2="0" y2="1">
    <stop offset="0%" stop-color="#7bbf97"/><stop offset="100%" stop-color="#3f855f"/>
  </linearGradient>
  <linearGradient id="trunk" x1="0" y1="0" x2="1" y2="0">
    <stop offset="0%" stop-color="#4a3823"/><stop offset="50%" stop-color="#6b5334"/><stop offset="100%" stop-color="#3c2c1a"/>
  </linearGradient>
</defs>
<circle cx="360" cy="175" r="205" fill="url(#halo)"/>
<circle cx="360" cy="175" r="188" fill="none" stroke="#cbb075" stroke-opacity="0.5" stroke-width="1.2"/>
<path d="M338 430 C 344 360, 330 320, 348 250 C 352 235, 368 235, 372 252 C 386 315, 372 360, 384 430 Z" fill="url(#trunk)"/>
<path d="M338 430 C 300 420, 285 428, 262 432 C 300 436, 322 434, 344 434 Z" fill="url(#trunk)" opacity="0.9"/>
<path d="M384 430 C 420 420, 442 428, 470 432 C 430 437, 405 434, 378 434 Z" fill="url(#trunk)" opacity="0.9"/>
<path d="M360 268 C 320 250, 285 235, 250 205" fill="none" stroke="#5b4324" stroke-width="6" stroke-linecap="round" opacity="0.85"/>
<path d="M360 268 C 320 250, 285 235, 250 205" fill="none" stroke="#cbb075" stroke-width="1.4" stroke-linecap="round" opacity="0.7"/>
<path d="M360 262 C 400 245, 435 230, 470 205" fill="none" stroke="#5b4324" stroke-width="6" stroke-linecap="round" opacity="0.85"/>
<path d="M360 262 C 400 245, 435 230, 470 205" fill="none" stroke="#cbb075" stroke-width="1.4" stroke-linecap="round" opacity="0.7"/>
<path d="M360 258 C 345 225, 330 205, 320 175" fill="none" stroke="#5b4324" stroke-width="6" stroke-linecap="round" opacity="0.85"/>
<path d="M360 258 C 345 225, 330 205, 320 175" fill="none" stroke="#cbb075" stroke-width="1.4" stroke-linecap="round" opacity="0.7"/>
<path d="M362 258 C 385 225, 400 205, 410 172" fill="none" stroke="#5b4324" stroke-width="6" stroke-linecap="round" opacity="0.85"/>
<path d="M362 258 C 385 225, 400 205, 410 172" fill="none" stroke="#cbb075" stroke-width="1.4" stroke-linecap="round" opacity="0.7"/>
<path d="M361 260 C 361 230, 361 205, 361 178" fill="none" stroke="#5b4324" stroke-width="6" stroke-linecap="round" opacity="0.85"/>
<path d="M361 260 C 361 230, 361 205, 361 178" fill="none" stroke="#cbb075" stroke-width="1.4" stroke-linecap="round" opacity="0.7"/>
<circle cx="348.4" cy="129.9" r="59.3" fill="url(#leafDark)"/>
<circle cx="266.4" cy="152.8" r="59.2" fill="url(#leafDark)"/>
<circle cx="260.2" cy="251.0" r="58.6" fill="url(#leafDark)"/>
<circle cx="273.9" cy="233.9" r="58.4" fill="url(#leafDark)"/>
<circle cx="382.3" cy="256.0" r="58.2" fill="url(#leafDark)"/>
<circle cx="342.5" cy="161.0" r="56.6" fill="url(#leafDark)"/>
<circle cx="251.3" cy="149.6" r="55.8" fill="url(#leafDark)"/>
<circle cx="259.2" cy="104.6" r="53.9" fill="url(#leafDark)"/>
<circle cx="209.7" cy="153.4" r="53.9" fill="url(#leafDark)"/>
<circle cx="389.4" cy="92.8" r="53.1" fill="url(#leafDark)"/>
<circle cx="390.2" cy="196.6" r="52.1" fill="url(#leafDark)"/>
<circle cx="440.1" cy="222.9" r="51.7" fill="url(#leafDark)"/>
<circle cx="338.7" cy="160.7" r="49.9" fill="url(#leafDark)"/>
<circle cx="426.7" cy="143.1" r="49.6" fill="url(#leafDark)"/>
<circle cx="337.5" cy="239.2" r="48.7" fill="url(#leafDark)"/>
<circle cx="330.8" cy="214.3" r="48.1" fill="url(#leafDark)"/>
<circle cx="315.9" cy="116.8" r="47.0" fill="url(#leafDark)"/>
<circle cx="372.2" cy="247.5" r="46.0" fill="url(#leafDark)"/>
<circle cx="388.8" cy="143.7" r="45.8" fill="url(#leafDark)"/>
<circle cx="287.8" cy="107.9" r="45.5" fill="url(#leafDark)"/>
<circle cx="294.1" cy="136.1" r="44.6" fill="url(#leafDark)"/>
<circle cx="447.5" cy="102.2" r="42.1" fill="url(#leafDark)"/>
<circle cx="253.9" cy="140.1" r="41.5" fill="url(#leafDark)"/>
<circle cx="393.0" cy="161.3" r="41.3" fill="url(#leafDark)"/>
<circle cx="359.1" cy="187.1" r="40.2" fill="url(#leafDark)"/>
<circle cx="418.2" cy="142.8" r="40.1" fill="url(#leafDark)"/>
<circle cx="417.5" cy="215.7" r="39.3" fill="url(#leafDark)"/>
<circle cx="470.5" cy="211.9" r="38.4" fill="url(#leafDark)"/>
<circle cx="377.3" cy="218.4" r="37.6" fill="url(#leafDark)"/>
<circle cx="313.5" cy="124.1" r="36.7" fill="url(#leafDark)"/>
<circle cx="395.6" cy="206.9" r="36.5" fill="url(#leafDark)"/>
<circle cx="262.9" cy="147.9" r="36.2" fill="url(#leafDark)"/>
<circle cx="509.0" cy="206.7" r="35.8" fill="url(#leafDark)"/>
<circle cx="398.7" cy="103.8" r="34.3" fill="url(#leafDark)"/>
<circle cx="401.1" cy="213.7" r="33.9" fill="url(#leafDark)"/>
<circle cx="397.9" cy="190.0" r="33.0" fill="url(#leafDark)"/>
<circle cx="473.0" cy="190.2" r="31.7" fill="url(#leafDark)"/>
<circle cx="362.4" cy="181.5" r="31.1" fill="url(#leafDark)"/>
<circle cx="452.7" cy="127.6" r="31.1" fill="url(#leafDark)"/>
<circle cx="224.1" cy="220.9" r="30.2" fill="url(#leafDark)"/>
<circle cx="277.2" cy="218.9" r="29.5" fill="url(#leafDark)"/>
<circle cx="319.4" cy="191.3" r="29.1" fill="url(#leafDark)"/>
<circle cx="332.1" cy="163.1" r="28.3" fill="url(#leafDark)"/>
<circle cx="427.9" cy="235.8" r="27.3" fill="url(#leafDark)"/>
<circle cx="471.8" cy="205.4" r="27.3" fill="url(#leafDark)"/>
<circle cx="441.4" cy="215.5" r="26.9" fill="url(#leafDark)"/>
<circle cx="459.0" cy="225.0" r="51.8" fill="url(#leafMid)" opacity="0.96"/>
<circle cx="497.6" cy="138.8" r="50.7" fill="url(#leafMid)" opacity="0.96"/>
<circle cx="400.7" cy="194.4" r="49.1" fill="url(#leafMid)" opacity="0.96"/>
<circle cx="450.3" cy="148.6" r="48.2" fill="url(#leafMid)" opacity="0.96"/>
<circle cx="379.9" cy="140.9" r="46.8" fill="url(#leafMid)" opacity="0.96"/>
<circle cx="326.0" cy="205.8" r="46.3" fill="url(#leafMid)" opacity="0.96"/>
<circle cx="497.9" cy="163.7" r="46.2" fill="url(#leafMid)" opacity="0.96"/>
<circle cx="381.1" cy="124.0" r="46.0" fill="url(#leafMid)" opacity="0.96"/>
<circle cx="363.8" cy="175.8" r="46.0" fill="url(#leafMid)" opacity="0.96"/>
<circle cx="283.8" cy="103.2" r="45.5" fill="url(#leafMid)" opacity="0.96"/>
<circle cx="375.0" cy="110.3" r="45.4" fill="url(#leafMid)" opacity="0.96"/>
<circle cx="498.1" cy="160.5" r="42.9" fill="url(#leafMid)" opacity="0.96"/>
<circle cx="382.3" cy="206.9" r="40.7" fill="url(#leafMid)" opacity="0.96"/>
<circle cx="340.4" cy="210.7" r="39.6" fill="url(#leafMid)" opacity="0.96"/>
<circle cx="452.4" cy="141.6" r="38.0" fill="url(#leafMid)" opacity="0.96"/>
<circle cx="336.2" cy="167.3" r="37.8" fill="url(#leafMid)" opacity="0.96"/>
<circle cx="478.9" cy="158.7" r="37.8" fill="url(#leafMid)" opacity="0.96"/>
<circle cx="471.4" cy="125.9" r="36.4" fill="url(#leafMid)" opacity="0.96"/>
<circle cx="435.3" cy="144.2" r="35.7" fill="url(#leafMid)" opacity="0.96"/>
<circle cx="308.2" cy="94.1" r="35.4" fill="url(#leafMid)" opacity="0.96"/>
<circle cx="339.7" cy="169.3" r="35.2" fill="url(#leafMid)" opacity="0.96"/>
<circle cx="236.5" cy="131.1" r="34.6" fill="url(#leafMid)" opacity="0.96"/>
<circle cx="452.9" cy="161.6" r="34.0" fill="url(#leafMid)" opacity="0.96"/>
<circle cx="358.7" cy="220.5" r="32.9" fill="url(#leafMid)" opacity="0.96"/>
<circle cx="480.7" cy="162.6" r="32.5" fill="url(#leafMid)" opacity="0.96"/>
<circle cx="430.3" cy="200.4" r="29.9" fill="url(#leafMid)" opacity="0.96"/>
<circle cx="438.1" cy="178.8" r="29.8" fill="url(#leafMid)" opacity="0.96"/>
<circle cx="391.7" cy="136.7" r="29.6" fill="url(#leafMid)" opacity="0.96"/>
<circle cx="313.5" cy="200.6" r="28.8" fill="url(#leafMid)" opacity="0.96"/>
<circle cx="413.7" cy="105.3" r="28.8" fill="url(#leafMid)" opacity="0.96"/>
<circle cx="360.1" cy="112.9" r="27.4" fill="url(#leafMid)" opacity="0.96"/>
<circle cx="480.6" cy="147.5" r="27.1" fill="url(#leafMid)" opacity="0.96"/>
<circle cx="353.7" cy="221.7" r="27.0" fill="url(#leafMid)" opacity="0.96"/>
<circle cx="463.9" cy="152.5" r="26.4" fill="url(#leafMid)" opacity="0.96"/>
<circle cx="354.3" cy="225.3" r="25.9" fill="url(#leafMid)" opacity="0.96"/>
<circle cx="258.0" cy="183.4" r="24.6" fill="url(#leafMid)" opacity="0.96"/>
<circle cx="283.2" cy="109.4" r="24.5" fill="url(#leafMid)" opacity="0.96"/>
<circle cx="271.1" cy="165.5" r="22.9" fill="url(#leafMid)" opacity="0.96"/>
<circle cx="388.7" cy="141.3" r="22.7" fill="url(#leafMid)" opacity="0.96"/>
<circle cx="308.2" cy="161.8" r="22.4" fill="url(#leafMid)" opacity="0.96"/>
<circle cx="456.1" cy="147.8" r="39.3" fill="url(#leafLight)" opacity="0.9"/>
<circle cx="420.2" cy="198.6" r="39.2" fill="url(#leafLight)" opacity="0.9"/>
<circle cx="347.5" cy="176.9" r="38.1" fill="url(#leafLight)" opacity="0.9"/>
<circle cx="298.5" cy="105.0" r="37.5" fill="url(#leafLight)" opacity="0.9"/>
<circle cx="241.5" cy="131.0" r="36.2" fill="url(#leafLight)" opacity="0.9"/>
<circle cx="231.0" cy="157.9" r="36.0" fill="url(#leafLight)" opacity="0.9"/>
<circle cx="248.8" cy="180.8" r="35.7" fill="url(#leafLight)" opacity="0.9"/>
<circle cx="388.7" cy="190.7" r="33.4" fill="url(#leafLight)" opacity="0.9"/>
<circle cx="234.7" cy="161.3" r="32.8" fill="url(#leafLight)" opacity="0.9"/>
<circle cx="407.4" cy="196.3" r="31.8" fill="url(#leafLight)" opacity="0.9"/>
<circle cx="361.9" cy="109.3" r="29.5" fill="url(#leafLight)" opacity="0.9"/>
<circle cx="347.1" cy="144.5" r="29.3" fill="url(#leafLight)" opacity="0.9"/>
<circle cx="321.6" cy="114.0" r="28.8" fill="url(#leafLight)" opacity="0.9"/>
<circle cx="285.8" cy="140.7" r="28.4" fill="url(#leafLight)" opacity="0.9"/>
<circle cx="391.6" cy="187.6" r="28.4" fill="url(#leafLight)" opacity="0.9"/>
<circle cx="285.1" cy="124.4" r="28.3" fill="url(#leafLight)" opacity="0.9"/>
<circle cx="357.2" cy="93.9" r="26.6" fill="url(#leafLight)" opacity="0.9"/>
<circle cx="377.3" cy="169.4" r="26.6" fill="url(#leafLight)" opacity="0.9"/>
<circle cx="443.1" cy="171.2" r="26.2" fill="url(#leafLight)" opacity="0.9"/>
<circle cx="372.2" cy="212.4" r="25.6" fill="url(#leafLight)" opacity="0.9"/>
<circle cx="335.0" cy="156.0" r="24.0" fill="url(#leafLight)" opacity="0.9"/>
<circle cx="321.8" cy="176.2" r="23.6" fill="url(#leafLight)" opacity="0.9"/>
<circle cx="294.4" cy="141.6" r="22.6" fill="url(#leafLight)" opacity="0.9"/>
<circle cx="433.2" cy="110.9" r="22.2" fill="url(#leafLight)" opacity="0.9"/>
<circle cx="361.3" cy="121.3" r="19.1" fill="url(#leafLight)" opacity="0.9"/>
<circle cx="250.1" cy="134.3" r="18.5" fill="url(#leafLight)" opacity="0.9"/>
<circle cx="259.3" cy="130.7" r="18.1" fill="url(#leafLight)" opacity="0.9"/>
<circle cx="402.9" cy="166.4" r="17.8" fill="url(#leafLight)" opacity="0.9"/>
<circle cx="288.9" cy="121.8" r="17.5" fill="url(#leafLight)" opacity="0.9"/>
<circle cx="398.9" cy="172.5" r="17.0" fill="url(#leafLight)" opacity="0.9"/>
<circle cx="371.5" cy="257.3" r="4.6" fill="#d8bf83"/>
<circle cx="371.5" cy="257.3" r="2.1" fill="#f0e2bd"/>
<circle cx="272.9" cy="125.0" r="5.1" fill="#d8bf83"/>
<circle cx="272.9" cy="125.0" r="2.3" fill="#f0e2bd"/>
<circle cx="352.2" cy="278.7" r="4.3" fill="#d8bf83"/>
<circle cx="352.2" cy="278.7" r="1.9" fill="#f0e2bd"/>
<circle cx="436.3" cy="96.5" r="3.5" fill="#d8bf83"/>
<circle cx="436.3" cy="96.5" r="1.6" fill="#f0e2bd"/>
<circle cx="247.2" cy="109.2" r="4.9" fill="#d8bf83"/>
<circle cx="247.2" cy="109.2" r="2.2" fill="#f0e2bd"/>
<circle cx="301.4" cy="90.7" r="4.6" fill="#d8bf83"/>
<circle cx="301.4" cy="90.7" r="2.1" fill="#f0e2bd"/>
<circle cx="321.4" cy="269.3" r="4.3" fill="#d8bf83"/>
<circle cx="321.4" cy="269.3" r="1.9" fill="#f0e2bd"/>
<circle cx="326.7" cy="82.5" r="5.3" fill="#d8bf83"/>
<circle cx="326.7" cy="82.5" r="2.4" fill="#f0e2bd"/>
<circle cx="228.5" cy="227.2" r="5.4" fill="#d8bf83"/>
<circle cx="228.5" cy="227.2" r="2.4" fill="#f0e2bd"/>
<circle cx="451.0" cy="123.5" r="3.7" fill="#d8bf83"/>
<circle cx="451.0" cy="123.5" r="1.7" fill="#f0e2bd"/>
<circle cx="501.9" cy="155.4" r="3.9" fill="#d8bf83"/>
<circle cx="501.9" cy="155.4" r="1.8" fill="#f0e2bd"/>
<path d="M150 434 C 300 470, 470 470, 590 430" fill="none" stroke="#cbb075" stroke-width="2" opacity="0.7"/>
<path d="M180 440 C 320 462, 460 462, 560 438" fill="none" stroke="#cbb075" stroke-width="1" opacity="0.4"/>
</svg>